<svg xmlns="http://www.w3.org/2000/svg" xmlns:xlink="http://www.w3.org/1999/xlink" zoomAndPan="magnify" viewBox="0 0 810 809.999993" preserveAspectRatio="xMidYMid meet" version="1.2"><g id="14ffb0a5ae"><path style=" stroke:none;fill-rule:nonzero;fill:#075d9f;fill-opacity:1;" d="M 43.890625 24.542969 C 53.222656 24.070312 62.523438 23.664062 71.859375 23.421875 C 75.023438 23.320312 78.183594 23.179688 81.34375 23.003906 C 94.449219 22.28125 106.703125 21.878906 118.695312 27.9375 C 125.074219 33.257812 128.648438 37.546875 132.402344 44.96875 C 134.695312 56.90625 134.355469 68.25 133.679688 80.289062 C 133.574219 83.476562 133.480469 86.660156 133.398438 89.847656 C 133.160156 97.585938 132.792969 105.320312 132.402344 113.054688 L 102.898438 113.054688 L 100.628906 83.550781 L 95.238281 89.222656 C 91.542969 92.363281 91.542969 92.363281 87.011719 94.898438 C 79.339844 95.988281 71.996094 95.910156 64.316406 94.898438 L 62.046875 92.628906 C 61.058594 84.207031 60.925781 76.070312 62.046875 67.664062 C 65.316406 62.28125 68.207031 60.078125 73.394531 56.316406 L 43.890625 54.046875 Z M 665.734375 151.636719 L 681.621094 151.636719 L 683.890625 158.445312 L 688.855469 155.039062 C 698.726562 150.160156 708.929688 150.429688 719.75 150.6875 C 728.714844 151.859375 734.398438 154.375 741.578125 159.753906 C 748.683594 166.144531 753.195312 171.972656 757.082031 180.710938 C 759.640625 191.59375 760.371094 200.710938 757.226562 211.40625 C 753.730469 220.164062 750.09375 226.113281 743.609375 233.054688 C 734.472656 238.914062 726.472656 243.105469 715.664062 244.683594 C 703.8125 243.890625 693.835938 242.238281 683.890625 235.605469 L 683.925781 239.738281 C 683.96875 245.878906 684.003906 252.019531 684.03125 258.160156 L 684.089844 264.664062 L 684.113281 270.84375 L 684.148438 276.574219 L 683.890625 280.996094 L 681.621094 283.265625 L 665.734375 283.265625 Z M 692.96875 174.332031 C 687.195312 178.800781 687.195312 178.800781 683.890625 185.675781 C 682.753906 193.417969 682.84375 200.625 683.890625 208.371094 C 686.863281 215.722656 689.609375 218.820312 695.664062 223.835938 C 702.847656 226.867188 708.113281 227.511719 715.839844 227.175781 C 720.648438 226.652344 720.648438 226.652344 726.445312 223.835938 C 732.640625 218.84375 736.621094 215.347656 740.628906 208.371094 C 742.042969 200.53125 742.082031 193.515625 740.628906 185.675781 C 737.527344 179.460938 734.660156 176.84375 729.28125 172.0625 C 723.402344 168.828125 719.011719 167.660156 712.402344 166.8125 C 704.648438 167.757812 699.609375 170.230469 692.96875 174.332031 "/><path style=" stroke:none;fill-rule:nonzero;fill:#003062;fill-opacity:1;" d="M 146.019531 113.054688 L 161.90625 113.054688 C 162.246094 126.898438 162.492188 140.746094 162.652344 154.59375 C 162.722656 159.300781 162.8125 164.003906 162.933594 168.707031 C 163.097656 175.496094 163.175781 182.28125 163.234375 189.074219 C 163.304688 191.152344 163.375 193.230469 163.449219 195.371094 C 163.453125 204.164062 162.957031 210.769531 159.042969 218.734375 C 153.832031 226.800781 148.890625 233.546875 140.914062 239.011719 C 130.976562 243.769531 120.644531 245.117188 109.707031 244.683594 C 99.917969 242.726562 91.953125 238.640625 84.035156 232.628906 C 77.507812 226.101562 74.285156 221.5625 71.125 212.910156 C 68.960938 204.046875 68.207031 196.054688 69.851562 187.035156 C 72.429688 178.21875 75.195312 172.613281 81.199219 165.535156 C 94.636719 154.386719 94.636719 154.386719 102.898438 151.636719 C 107.242188 151.3125 111.59375 151.125 115.949219 151.066406 L 122.863281 150.890625 C 130.132812 151.636719 130.132812 151.636719 146.019531 158.445312 Z M 103.609375 169.933594 C 95.882812 173.949219 95.882812 173.949219 90.558594 180.429688 C 87.441406 187.035156 86.335938 190.179688 86.019531 197.167969 C 86.542969 205.855469 86.542969 205.855469 89.707031 212.34375 C 94.640625 218.46875 98.328125 222.515625 105.167969 226.527344 C 112.226562 227.820312 118.53125 227.75 125.59375 226.527344 C 133.410156 223.210938 133.410156 223.210938 139.210938 217.449219 C 143.773438 210.453125 145.808594 205.273438 147.011719 197.023438 C 146.371094 189.859375 146.371094 189.859375 142.046875 182.984375 C 135.875 175.242188 135.875 175.242188 127.863281 169.792969 C 118.453125 167.304688 113.003906 167.226562 103.609375 169.933594 "/><path style=" stroke:none;fill-rule:nonzero;fill:#075d9f;fill-opacity:1;" d="M 620.34375 151.636719 C 624.933594 152.996094 629.472656 154.507812 633.960938 156.175781 L 636.230469 151.636719 L 652.117188 151.636719 L 652.117188 242.414062 L 636.230469 242.414062 L 631.691406 237.875 L 627.523438 239.527344 C 616.972656 243.257812 608.382812 245.4375 597.226562 243.550781 C 588.234375 241.222656 580.980469 237.988281 573.75 232.140625 C 567.972656 226.347656 564.1875 220.585938 561.335938 212.910156 C 558.972656 204.007812 558.347656 196.109375 560.152344 187.042969 C 563.28125 176.675781 567.082031 168.367188 574.953125 160.714844 C 588.941406 149.703125 602.972656 149.800781 620.34375 151.636719 M 586.300781 174.332031 C 580.585938 180.257812 580.585938 180.257812 577.222656 187.945312 C 576.066406 194.574219 576.460938 199.214844 577.222656 206.101562 C 580.210938 213.015625 583.773438 217.167969 588.855469 222.699219 C 595.363281 226.515625 598.144531 227.308594 605.453125 227.664062 C 612.949219 227.289062 616.46875 226.210938 623.464844 222.839844 C 629.570312 217.695312 629.570312 217.695312 633.820312 211.351562 C 636.539062 202.871094 636.765625 196.941406 635.417969 188.210938 C 634.066406 182.730469 634.066406 182.730469 628.855469 176.742188 C 621.160156 170.96875 615.265625 168.035156 605.734375 166.8125 C 597.894531 167.765625 592.96875 170.074219 586.300781 174.332031 "/><path style=" stroke:none;fill-rule:nonzero;fill:#003062;fill-opacity:1;" d="M 234.53125 151.636719 C 241.519531 154.449219 246.921875 158.175781 252.683594 162.984375 L 258.359375 167.382812 C 261.761719 172.0625 261.761719 172.0625 263.464844 178.445312 C 261.761719 185.675781 261.761719 185.675781 258.085938 189.84375 C 253.421875 194.019531 248.621094 197.824219 243.605469 201.5625 L 238.21875 205.960938 C 230.3125 209.164062 223.257812 209.199219 214.796875 209.277344 C 209.566406 208.371094 209.566406 208.371094 205.445312 205.21875 L 202.757812 201.5625 C 203.183594 196.742188 203.183594 196.742188 205.027344 192.484375 C 210.175781 189.910156 213.632812 189.84375 219.351562 189.507812 C 227.347656 188.734375 229.996094 187.941406 236.941406 183.265625 L 241.335938 178.871094 C 237.796875 175.25 237.796875 175.25 232.261719 172.0625 C 225.621094 170.5625 220.746094 169.574219 214.105469 169.792969 C 206.683594 172.449219 202.019531 175.121094 196.375 180.570312 C 192.582031 187.753906 191.6875 193.449219 191.410156 201.5625 C 194.453125 208.980469 194.453125 208.980469 198.21875 215.179688 L 198.21875 219.71875 C 207.242188 224.378906 215.191406 225.042969 225.148438 224.878906 C 231.617188 224.050781 235.816406 220.792969 241.335938 217.449219 C 249.992188 218.160156 249.992188 218.160156 257.222656 219.71875 L 257.222656 228.796875 C 249.761719 236.742188 241.148438 240.503906 230.894531 243.601562 C 221.824219 245.40625 213.9375 244.769531 205.027344 242.414062 C 196.804688 239.457031 191.09375 235.488281 185.214844 229.019531 C 179.375 221.574219 174.976562 215.527344 173.253906 206.101562 C 172.019531 193.78125 174.351562 184.148438 179.132812 172.910156 C 183.578125 165.421875 189.03125 161.144531 196.171875 156.308594 C 208.109375 149.664062 221.269531 150.121094 234.53125 151.636719 M 14.386719 54.046875 L 43.890625 54.046875 L 43.890625 113.054688 L 102.898438 113.054688 L 102.898438 142.558594 C 93.210938 143.011719 83.53125 143.339844 73.835938 143.554688 C 70.546875 143.648438 67.257812 143.769531 63.972656 143.929688 C 38.230469 145.132812 38.230469 145.132812 26.261719 139.710938 C 20.351562 134.9375 17.53125 131.339844 14.386719 124.402344 C 12.335938 112.160156 12.660156 100.441406 13.253906 88.089844 C 13.34375 84.78125 13.425781 81.476562 13.503906 78.167969 C 13.699219 70.125 14.011719 62.085938 14.386719 54.046875 "/><path style=" stroke:none;fill-rule:nonzero;fill:#075d9f;fill-opacity:1;" d="M 461.480469 151.636719 L 477.367188 151.636719 L 477.367188 156.175781 L 482.472656 153.90625 C 494.527344 150.691406 505.820312 150.335938 518.21875 151.636719 C 524.710938 153.523438 529.136719 156.140625 534.101562 160.714844 C 540.992188 168.496094 546.683594 175.765625 549.988281 185.675781 C 550.203125 189.839844 550.285156 194.007812 550.292969 198.179688 L 550.300781 205.527344 L 550.273438 213.195312 L 550.300781 220.917969 L 550.292969 228.246094 L 550.28125 234.996094 L 549.988281 240.144531 L 547.71875 242.414062 C 540.910156 242.699219 540.910156 242.699219 534.101562 242.414062 L 531.832031 240.144531 C 531.628906 236.261719 531.523438 232.375 531.515625 228.488281 L 531.378906 221.246094 C 531.304688 216.207031 531.261719 211.167969 531.257812 206.125 C 531.128906 193.164062 531.128906 193.164062 527.285156 180.980469 C 524.195312 176.707031 524.195312 176.707031 518.21875 172.0625 C 511.402344 169.34375 505.082031 169.222656 497.792969 169.792969 C 491.144531 171.964844 491.144531 171.964844 486.445312 176.601562 C 482.191406 182.601562 479.792969 186.929688 478.65625 194.234375 L 478.472656 200.96875 L 478.230469 208.308594 L 478.074219 215.890625 L 477.839844 223.605469 C 477.652344 229.875 477.496094 236.144531 477.367188 242.414062 L 461.480469 242.414062 C 457.898438 235.253906 458.886719 227.578125 458.90625 219.71875 L 458.902344 214.277344 C 458.902344 210.476562 458.90625 206.675781 458.914062 202.875 C 458.925781 197.046875 458.914062 191.222656 458.898438 185.394531 C 458.898438 181.707031 458.902344 178.019531 458.90625 174.332031 L 458.894531 169.027344 C 458.949219 156.695312 458.949219 156.695312 461.480469 151.636719 M 410.796875 151.414062 L 416.9375 151.433594 L 423.324219 151.492188 L 429.792969 151.523438 C 435.058594 151.550781 440.324219 151.589844 445.59375 151.636719 L 445.59375 167.523438 C 430.539062 169.972656 415.410156 170.984375 400.203125 172.0625 C 400.109375 175.84375 400.109375 179.625 400.203125 183.410156 L 402.472656 185.675781 C 410.394531 186.632812 418.324219 187.433594 426.265625 188.195312 C 434.246094 190.214844 434.246094 190.214844 440.804688 195.925781 L 445.59375 201.5625 L 447.863281 203.832031 C 448.875 211.511719 448.917969 218.859375 447.863281 226.527344 C 444.738281 232.585938 441.691406 235.449219 436.515625 240.144531 C 430.027344 242.308594 425.925781 242.707031 419.191406 242.71875 L 413.085938 242.726562 L 406.726562 242.699219 L 400.320312 242.726562 L 394.226562 242.71875 L 388.632812 242.707031 L 384.316406 242.414062 L 382.046875 240.144531 C 381.761719 234.472656 381.761719 234.472656 382.046875 228.796875 L 384.316406 226.527344 C 387.6875 226.171875 391.078125 225.960938 394.46875 225.8125 L 400.648438 225.523438 L 407.152344 225.25 L 413.679688 224.957031 C 419.023438 224.714844 424.363281 224.480469 429.707031 224.257812 C 429.804688 219.71875 429.796875 215.179688 429.707031 210.640625 L 427.4375 208.371094 C 419.515625 207.328125 411.585938 206.472656 403.644531 205.632812 C 395.664062 203.832031 395.664062 203.832031 389.15625 199.445312 C 384.316406 194.753906 384.316406 194.753906 381.195312 189.648438 C 379.570312 182.5 379.523438 176.859375 380.65625 169.640625 C 382.046875 165.253906 382.046875 165.253906 387.4375 158.585938 C 395.402344 152.328125 400.972656 151.351562 410.796875 151.414062 "/><path style=" stroke:none;fill-rule:nonzero;fill:#003062;fill-opacity:1;" d="M 275.378906 149.367188 C 281.054688 148.796875 281.054688 148.796875 286.726562 149.367188 L 291.265625 153.90625 L 290.84375 161.632812 C 290.496094 175.214844 296.804688 186.195312 302.613281 198.160156 L 305.894531 205.128906 C 308.554688 210.761719 311.242188 216.382812 313.960938 221.988281 C 314.085938 217.167969 314.171875 212.34375 314.246094 207.523438 L 314.40625 199.382812 L 313.960938 192.484375 L 309.421875 187.945312 C 308.855469 182.273438 308.855469 182.273438 309.421875 176.601562 L 313.960938 172.0625 C 320.769531 171.492188 320.769531 171.492188 327.578125 172.0625 L 332.117188 176.601562 C 331.550781 183.410156 331.550781 183.410156 329.847656 190.214844 L 325.308594 194.753906 C 324.753906 201.855469 324.753906 201.855469 325.027344 209.792969 L 325.152344 217.964844 L 325.308594 224.257812 C 329.53125 215.964844 333.667969 207.636719 337.792969 199.292969 L 341.398438 192.210938 C 348.140625 178.46875 351.261719 169.144531 350.273438 153.90625 L 354.8125 149.367188 C 360.488281 148.796875 360.488281 148.796875 366.160156 149.367188 L 370.699219 153.90625 C 371.695312 160.574219 371.695312 160.574219 370.699219 167.523438 L 365.441406 170.425781 C 358.863281 174.003906 358.863281 174.003906 355.328125 181.109375 L 351.691406 189.3125 L 347.613281 198.210938 C 345.527344 202.878906 343.449219 207.550781 341.386719 212.230469 C 339.363281 216.753906 337.316406 221.265625 335.238281 225.765625 L 331.601562 233.953125 L 327.578125 240.144531 C 321.429688 242.179688 321.429688 242.179688 316.230469 242.414062 C 310.902344 235.742188 307.058594 229.046875 303.375 221.351562 L 300.0625 214.425781 L 296.65625 207.238281 L 293.199219 200.046875 C 284.679688 182.164062 284.679688 182.164062 283.347656 176.027344 L 282.1875 172.0625 C 276.539062 169.117188 276.539062 169.117188 270.839844 167.523438 C 270.558594 160.996094 270.558594 160.996094 270.839844 153.90625 Z M 275.378906 149.367188 "/><path style=" stroke:none;fill-rule:nonzero;fill:#0d0c0c;fill-opacity:1;" d="M 227.722656 269.648438 L 241.335938 269.648438 C 245.734375 272.484375 245.734375 272.484375 248.144531 276.457031 C 247.4375 281.421875 247.4375 281.421875 245.875 285.535156 L 232.261719 285.535156 L 232.261719 296.882812 L 227.722656 296.882812 Z M 232.261719 274.1875 L 232.261719 283.265625 L 243.605469 280.996094 L 241.335938 274.1875 Z M 232.261719 274.1875 "/><path style=" stroke:none;fill-rule:nonzero;fill:#075d9f;fill-opacity:1;" d="M 500.0625 190.214844 C 507.152344 191.066406 507.152344 191.066406 513.679688 192.484375 C 513.777344 196.265625 513.769531 200.050781 513.679688 203.832031 L 511.410156 206.101562 C 506.871094 206.195312 502.332031 206.199219 497.792969 206.101562 C 496.371094 200.714844 496.371094 200.714844 495.523438 194.753906 Z M 500.0625 190.214844 "/><path style=" stroke:none;fill-rule:nonzero;fill:#0d0c0c;fill-opacity:1;" d="M 288.996094 276.457031 C 293.964844 277.308594 293.964844 277.308594 298.074219 278.726562 C 298.132812 282.460938 298.183594 286.199219 298.21875 289.933594 L 298.296875 296.238281 L 298.074219 301.421875 L 295.804688 303.691406 C 292.023438 303.78125 288.238281 303.789062 284.457031 303.691406 L 284.457031 296.882812 L 293.535156 299.152344 L 295.804688 294.613281 L 291.550781 296.03125 L 286.726562 296.882812 L 282.1875 292.34375 C 281.480469 286.671875 281.480469 286.671875 282.1875 280.996094 Z M 286.726562 280.996094 L 284.457031 290.074219 L 293.535156 292.34375 L 295.804688 283.265625 Z M 427.4375 276.457031 L 436.515625 278.726562 L 436.515625 301.421875 C 432.757812 302.304688 428.976562 303.0625 425.167969 303.691406 L 420.628906 301.421875 L 422.898438 296.882812 L 431.976562 299.152344 L 434.246094 294.613281 L 427.4375 296.882812 L 420.628906 292.34375 C 419.777344 286.671875 419.777344 286.671875 420.628906 280.996094 Z M 425.167969 280.996094 L 422.898438 290.074219 L 431.976562 292.34375 L 434.246094 283.265625 Z M 409.28125 276.457031 C 414.386719 278.585938 414.386719 278.585938 418.359375 280.996094 L 418.359375 296.882812 L 413.820312 296.882812 L 413.820312 280.996094 L 407.011719 283.265625 L 404.742188 296.882812 L 400.203125 296.882812 L 400.203125 278.726562 C 404.175781 277.308594 404.175781 277.308594 409.28125 276.457031 M 461.480469 269.648438 L 463.75 278.726562 L 470.558594 276.457031 L 475.097656 278.726562 L 475.097656 296.882812 L 472.828125 296.882812 L 472.828125 280.996094 L 466.019531 283.265625 L 463.75 296.882812 L 459.210938 296.882812 C 459.152344 292.769531 459.105469 288.65625 459.070312 284.542969 L 458.988281 277.597656 L 459.210938 271.917969 Z M 586.300781 276.457031 C 590.699219 278.304688 590.699219 278.304688 595.378906 280.996094 L 597.648438 287.804688 L 584.03125 290.074219 L 584.03125 294.613281 L 595.378906 292.34375 L 593.109375 296.882812 C 589.328125 296.980469 585.542969 296.972656 581.761719 296.882812 L 579.492188 294.613281 C 578.925781 287.949219 578.925781 287.949219 579.492188 280.996094 Z M 584.03125 280.996094 L 584.03125 285.535156 L 593.109375 285.535156 L 593.109375 280.996094 Z M 320.769531 276.457031 L 329.847656 280.996094 L 329.847656 296.882812 L 325.308594 296.882812 L 325.308594 287.804688 L 318.5 290.074219 L 316.230469 294.613281 L 323.039062 296.882812 L 313.960938 296.882812 L 316.230469 285.535156 L 325.308594 285.535156 L 325.308594 280.996094 L 313.960938 283.265625 Z M 370.699219 276.457031 C 375.664062 278.585938 375.664062 278.585938 379.777344 280.996094 L 379.777344 296.882812 L 375.238281 296.882812 L 375.238281 280.996094 L 368.429688 280.996094 L 366.160156 296.882812 L 363.890625 296.882812 L 363.890625 278.726562 Z M 268.570312 276.457031 L 279.917969 283.265625 C 279.234375 287.0625 278.480469 290.847656 277.648438 294.613281 L 275.378906 296.882812 C 269.707031 297.167969 269.707031 297.167969 264.03125 296.882812 L 261.761719 294.613281 C 261.195312 287.949219 261.195312 287.949219 261.761719 280.996094 Z M 266.300781 280.996094 L 264.03125 292.34375 L 273.109375 294.613281 L 275.378906 283.265625 Z M 486.445312 276.457031 L 495.523438 280.996094 L 495.523438 287.804688 L 481.90625 287.804688 L 484.175781 292.34375 L 495.523438 292.34375 L 493.253906 296.882812 C 489.472656 296.980469 485.6875 296.972656 481.90625 296.882812 L 479.636719 294.613281 C 479.066406 287.949219 479.066406 287.949219 479.636719 280.996094 Z M 484.175781 280.996094 L 481.90625 285.535156 L 493.253906 285.535156 L 490.984375 280.996094 Z M 518.21875 278.726562 L 520.488281 278.726562 L 522.757812 292.34375 L 529.5625 294.613281 L 529.5625 278.726562 L 534.101562 278.726562 L 534.101562 296.882812 C 529.5625 296.980469 525.023438 296.972656 520.488281 296.882812 L 518.21875 294.613281 C 518.125 289.316406 518.125 284.023438 518.21875 278.726562 M 538.640625 271.917969 C 542.046875 274.1875 542.046875 274.1875 545.449219 278.726562 C 546.070312 284.894531 545.757812 290.65625 545.449219 296.882812 L 538.640625 294.613281 C 536.648438 280.871094 536.648438 280.871094 536.371094 276.457031 Z M 341.195312 276.457031 C 346.160156 278.585938 346.160156 278.585938 350.273438 280.996094 L 348.003906 296.882812 L 345.734375 296.882812 L 343.464844 283.265625 L 338.925781 283.265625 L 336.65625 296.882812 L 334.386719 296.882812 L 334.386719 278.726562 Z M 450.132812 271.917969 C 453.535156 274.1875 453.535156 274.1875 456.941406 278.726562 C 457.558594 284.894531 457.246094 290.65625 456.941406 296.882812 L 450.132812 294.613281 C 447.578125 279.578125 447.578125 279.578125 450.132812 271.917969 M 382.046875 276.457031 L 391.125 280.996094 L 391.125 296.882812 L 386.585938 296.882812 L 386.585938 280.996094 L 379.777344 278.726562 Z M 511.410156 269.648438 L 515.949219 278.726562 L 511.410156 280.996094 L 511.410156 296.882812 L 509.140625 296.882812 L 509.140625 280.996094 L 504.601562 278.726562 Z M 511.410156 269.648438 "/><path style=" stroke:none;fill-rule:nonzero;fill:#1d6aa4;fill-opacity:1;" d="M 581.761719 156.175781 L 586.300781 158.445312 C 582.191406 164.117188 582.191406 164.117188 577.222656 169.792969 L 570.414062 169.792969 C 572.261719 165.535156 572.261719 165.535156 574.953125 160.714844 Z M 581.761719 156.175781 "/><path style=" stroke:none;fill-rule:nonzero;fill:#0d0c0c;fill-opacity:1;" d="M 547.71875 278.726562 L 552.257812 278.726562 L 552.257812 294.613281 L 559.066406 296.882812 L 549.988281 296.882812 C 546.917969 290.734375 547.574219 285.511719 547.71875 278.726562 M 400.203125 278.726562 L 407.011719 280.996094 L 404.742188 296.882812 L 400.203125 296.882812 Z M 393.394531 278.726562 L 397.933594 278.726562 L 397.933594 296.882812 L 393.394531 296.882812 Z M 568.144531 278.726562 L 579.492188 278.726562 L 576.230469 281.421875 C 572.222656 285.453125 572.222656 285.453125 571.125 291.636719 L 570.414062 296.882812 L 568.144531 296.882812 Z M 302.613281 278.726562 L 311.691406 280.996094 L 307.152344 285.535156 C 305.683594 291.367188 305.683594 291.367188 304.882812 296.882812 L 302.613281 296.882812 Z M 250.414062 278.726562 L 259.492188 280.996094 L 254.953125 280.996094 L 252.683594 296.882812 L 250.414062 296.882812 Z M 352.542969 276.457031 L 359.351562 278.726562 L 359.351562 296.882812 L 357.082031 296.882812 L 357.082031 280.996094 L 350.273438 278.726562 Z M 561.335938 278.726562 L 563.605469 278.726562 L 563.605469 296.882812 L 559.066406 292.34375 C 559.917969 285.253906 559.917969 285.253906 561.335938 278.726562 "/><path style=" stroke:none;fill-rule:nonzero;fill:#1d2422;fill-opacity:1;" d="M 393.394531 271.917969 L 397.933594 274.1875 Z M 393.394531 271.917969 "/></g></svg>